<svg xmlns="http://www.w3.org/2000/svg" viewBox="0 0 32 32">
  <defs>
    <linearGradient id="shieldGrad" x1="0%" y1="0%" x2="0%" y2="100%">
      <stop offset="0%" style="stop-color:#10B981;stop-opacity:1" />
      <stop offset="100%" style="stop-color:#059669;stop-opacity:1" />
    </linearGradient>
    <linearGradient id="fireGrad" x1="0%" y1="0%" x2="100%" y2="100%">
      <stop offset="0%" style="stop-color:#F59E0B;stop-opacity:1" />
      <stop offset="100%" style="stop-color:#EF4444;stop-opacity:1" />
    </linearGradient>
  </defs>

  <path d="M16 2 C8 2 4 6 4 14 C4 22 10 28 16 30 C22 28 28 22 28 14 C28 6 24 2 16 2 Z" 
        fill="url(#shieldGrad)" />

  <path d="M16 23 C16 23 11 19 11 15 C11 12.5 13 10.5 14.5 9 C14.5 9 13.5 11.5 14 12.5 C14.5 13.5 16 13 16 11 C16 11 17.5 11.5 18 12.5 C18.5 13.5 17.5 9 17.5 9 C19 10.5 21 12.5 21 15 C21 19 16 23 16 23 Z" 
        fill="#FFFFFF" />
        
  <path d="M16 21 C16 21 13.5 18.5 13.5 16.5 C13.5 15 14.5 14 14.5 14 C14.5 15.5 16 15 16 15 C16 15 17.5 15.5 17.5 14 C17.5 14 18.5 15 18.5 16.5 C18.5 18.5 16 21 16 21 Z" 
        fill="url(#fireGrad)" />
</svg>